ISO-10303-21;
HEADER;
/* Generated by software containing ST-Developer
 * from STEP Tools, Inc. (www.steptools.com) 
 */

FILE_DESCRIPTION(
/* description */ (''),
/* implementation_level */ '2;1');

FILE_NAME(
/* name */ 'Base.stp',
/* time_stamp */ '2026-10-01T14:30:38+02:00',
/* author */ ('HP'),
/* organization */ (''),
/* preprocessor_version */ 'ST-DEVELOPER v20.1',
/* originating_system */ 'Autodesk Inventor 2027',
/* authorisation */ '');

FILE_SCHEMA (('AUTOMOTIVE_DESIGN { 1 0 10303 214 3 1 1 }'));
ENDSEC;

DATA;
#10=MECHANICAL_DESIGN_GEOMETRIC_PRESENTATION_REPRESENTATION('',(#13),#625);
#11=SHAPE_REPRESENTATION_RELATIONSHIP('SRR','None',#632,#12);
#12=ADVANCED_BREP_SHAPE_REPRESENTATION('',(#14),#624);
#13=STYLED_ITEM('',(#641),#14);
#14=MANIFOLD_SOLID_BREP('Solid1',#356);
#15=FACE_BOUND('',#75,.T.);
#16=FACE_BOUND('',#85,.T.);
#17=FACE_BOUND('',#86,.T.);
#18=FACE_BOUND('',#87,.T.);
#19=FACE_BOUND('',#88,.T.);
#20=FACE_BOUND('',#89,.T.);
#21=FACE_BOUND('',#94,.T.);
#22=CYLINDRICAL_SURFACE('',#383,100.);
#23=CYLINDRICAL_SURFACE('',#389,11.);
#24=CYLINDRICAL_SURFACE('',#394,2.5);
#25=CYLINDRICAL_SURFACE('',#396,1.4);
#26=CYLINDRICAL_SURFACE('',#399,1.4);
#27=CYLINDRICAL_SURFACE('',#402,1.4);
#28=CYLINDRICAL_SURFACE('',#405,1.4);
#29=CIRCLE('',#382,100.);
#30=CIRCLE('',#384,100.);
#31=CIRCLE('',#385,100.);
#32=CIRCLE('',#386,100.);
#33=CIRCLE('',#390,11.);
#34=CIRCLE('',#391,11.);
#35=CIRCLE('',#393,2.5);
#36=CIRCLE('',#395,2.5);
#37=CIRCLE('',#397,1.4);
#38=CIRCLE('',#398,1.4);
#39=CIRCLE('',#400,1.4);
#40=CIRCLE('',#401,1.4);
#41=CIRCLE('',#403,1.4);
#42=CIRCLE('',#404,1.4);
#43=CIRCLE('',#406,1.4);
#44=CIRCLE('',#407,1.4);
#45=FACE_OUTER_BOUND('',#67,.T.);
#46=FACE_OUTER_BOUND('',#68,.T.);
#47=FACE_OUTER_BOUND('',#69,.T.);
#48=FACE_OUTER_BOUND('',#70,.T.);
#49=FACE_OUTER_BOUND('',#71,.T.);
#50=FACE_OUTER_BOUND('',#72,.T.);
#51=FACE_OUTER_BOUND('',#73,.T.);
#52=FACE_OUTER_BOUND('',#74,.T.);
#53=FACE_OUTER_BOUND('',#76,.T.);
#54=FACE_OUTER_BOUND('',#77,.T.);
#55=FACE_OUTER_BOUND('',#78,.T.);
#56=FACE_OUTER_BOUND('',#79,.T.);
#57=FACE_OUTER_BOUND('',#80,.T.);
#58=FACE_OUTER_BOUND('',#81,.T.);
#59=FACE_OUTER_BOUND('',#82,.T.);
#60=FACE_OUTER_BOUND('',#83,.T.);
#61=FACE_OUTER_BOUND('',#84,.T.);
#62=FACE_OUTER_BOUND('',#90,.T.);
#63=FACE_OUTER_BOUND('',#91,.T.);
#64=FACE_OUTER_BOUND('',#92,.T.);
#65=FACE_OUTER_BOUND('',#93,.T.);
#66=FACE_OUTER_BOUND('',#95,.T.);
#67=EDGE_LOOP('',(#229,#230,#231,#232));
#68=EDGE_LOOP('',(#233,#234,#235,#236));
#69=EDGE_LOOP('',(#237,#238,#239,#240));
#70=EDGE_LOOP('',(#241,#242,#243,#244,#245,#246,#247,#248));
#71=EDGE_LOOP('',(#249,#250,#251,#252,#253,#254,#255,#256,#257));
#72=EDGE_LOOP('',(#258,#259,#260,#261,#262,#263,#264,#265));
#73=EDGE_LOOP('',(#266,#267,#268,#269));
#74=EDGE_LOOP('',(#270));
#75=EDGE_LOOP('',(#271));
#76=EDGE_LOOP('',(#272,#273,#274,#275));
#77=EDGE_LOOP('',(#276,#277,#278,#279));
#78=EDGE_LOOP('',(#280,#281,#282,#283));
#79=EDGE_LOOP('',(#284,#285,#286,#287));
#80=EDGE_LOOP('',(#288,#289,#290,#291));
#81=EDGE_LOOP('',(#292,#293,#294,#295));
#82=EDGE_LOOP('',(#296,#297,#298,#299));
#83=EDGE_LOOP('',(#300,#301,#302,#303));
#84=EDGE_LOOP('',(#304,#305,#306,#307));
#85=EDGE_LOOP('',(#308));
#86=EDGE_LOOP('',(#309));
#87=EDGE_LOOP('',(#310));
#88=EDGE_LOOP('',(#311));
#89=EDGE_LOOP('',(#312));
#90=EDGE_LOOP('',(#313));
#91=EDGE_LOOP('',(#314));
#92=EDGE_LOOP('',(#315));
#93=EDGE_LOOP('',(#316));
#94=EDGE_LOOP('',(#317));
#95=EDGE_LOOP('',(#318));
#96=LINE('',#528,#125);
#97=LINE('',#530,#126);
#98=LINE('',#532,#127);
#99=LINE('',#533,#128);
#100=LINE('',#537,#129);
#101=LINE('',#539,#130);
#102=LINE('',#541,#131);
#103=LINE('',#542,#132);
#104=LINE('',#545,#133);
#105=LINE('',#550,#134);
#106=LINE('',#555,#135);
#107=LINE('',#557,#136);
#108=LINE('',#559,#137);
#109=LINE('',#561,#138);
#110=LINE('',#562,#139);
#111=LINE('',#565,#140);
#112=LINE('',#567,#141);
#113=LINE('',#568,#142);
#114=LINE('',#573,#143);
#115=LINE('',#580,#144);
#116=LINE('',#586,#145);
#117=LINE('',#592,#146);
#118=LINE('',#598,#147);
#119=LINE('',#604,#148);
#120=LINE('',#608,#149);
#121=LINE('',#610,#150);
#122=LINE('',#611,#151);
#123=LINE('',#613,#152);
#124=LINE('',#615,#153);
#125=VECTOR('',#421,10.);
#126=VECTOR('',#422,10.);
#127=VECTOR('',#423,10.);
#128=VECTOR('',#424,10.);
#129=VECTOR('',#427,10.);
#130=VECTOR('',#428,10.);
#131=VECTOR('',#429,10.);
#132=VECTOR('',#430,10.);
#133=VECTOR('',#435,10.);
#134=VECTOR('',#440,100.);
#135=VECTOR('',#447,10.);
#136=VECTOR('',#448,10.);
#137=VECTOR('',#449,10.);
#138=VECTOR('',#450,10.);
#139=VECTOR('',#451,10.);
#140=VECTOR('',#454,10.);
#141=VECTOR('',#455,10.);
#142=VECTOR('',#456,10.);
#143=VECTOR('',#461,11.);
#144=VECTOR('',#470,2.5);
#145=VECTOR('',#477,1.4);
#146=VECTOR('',#484,1.4);
#147=VECTOR('',#491,1.4);
#148=VECTOR('',#498,1.4);
#149=VECTOR('',#503,10.);
#150=VECTOR('',#504,10.);
#151=VECTOR('',#505,10.);
#152=VECTOR('',#508,10.);
#153=VECTOR('',#511,10.);
#154=VERTEX_POINT('',#526);
#155=VERTEX_POINT('',#527);
#156=VERTEX_POINT('',#529);
#157=VERTEX_POINT('',#531);
#158=VERTEX_POINT('',#535);
#159=VERTEX_POINT('',#536);
#160=VERTEX_POINT('',#538);
#161=VERTEX_POINT('',#540);
#162=VERTEX_POINT('',#547);
#163=VERTEX_POINT('',#549);
#164=VERTEX_POINT('',#554);
#165=VERTEX_POINT('',#556);
#166=VERTEX_POINT('',#558);
#167=VERTEX_POINT('',#560);
#168=VERTEX_POINT('',#564);
#169=VERTEX_POINT('',#566);
#170=VERTEX_POINT('',#570);
#171=VERTEX_POINT('',#572);
#172=VERTEX_POINT('',#576);
#173=VERTEX_POINT('',#579);
#174=VERTEX_POINT('',#583);
#175=VERTEX_POINT('',#585);
#176=VERTEX_POINT('',#589);
#177=VERTEX_POINT('',#591);
#178=VERTEX_POINT('',#595);
#179=VERTEX_POINT('',#597);
#180=VERTEX_POINT('',#601);
#181=VERTEX_POINT('',#603);
#182=VERTEX_POINT('',#607);
#183=VERTEX_POINT('',#609);
#184=EDGE_CURVE('',#154,#155,#96,.T.);
#185=EDGE_CURVE('',#156,#154,#97,.T.);
#186=EDGE_CURVE('',#156,#157,#98,.T.);
#187=EDGE_CURVE('',#155,#157,#99,.T.);
#188=EDGE_CURVE('',#158,#159,#100,.T.);
#189=EDGE_CURVE('',#160,#158,#101,.T.);
#190=EDGE_CURVE('',#160,#161,#102,.T.);
#191=EDGE_CURVE('',#159,#161,#103,.T.);
#192=EDGE_CURVE('',#157,#160,#29,.T.);
#193=EDGE_CURVE('',#161,#156,#104,.T.);
#194=EDGE_CURVE('',#162,#162,#30,.T.);
#195=EDGE_CURVE('',#162,#163,#105,.T.);
#196=EDGE_CURVE('',#163,#155,#31,.T.);
#197=EDGE_CURVE('',#158,#163,#32,.T.);
#198=EDGE_CURVE('',#159,#164,#106,.T.);
#199=EDGE_CURVE('',#164,#165,#107,.T.);
#200=EDGE_CURVE('',#165,#166,#108,.T.);
#201=EDGE_CURVE('',#166,#167,#109,.T.);
#202=EDGE_CURVE('',#167,#154,#110,.T.);
#203=EDGE_CURVE('',#167,#168,#111,.T.);
#204=EDGE_CURVE('',#168,#169,#112,.T.);
#205=EDGE_CURVE('',#164,#169,#113,.T.);
#206=EDGE_CURVE('',#170,#170,#33,.T.);
#207=EDGE_CURVE('',#170,#171,#114,.T.);
#208=EDGE_CURVE('',#171,#171,#34,.T.);
#209=EDGE_CURVE('',#172,#172,#35,.T.);
#210=EDGE_CURVE('',#172,#173,#115,.T.);
#211=EDGE_CURVE('',#173,#173,#36,.T.);
#212=EDGE_CURVE('',#174,#174,#37,.T.);
#213=EDGE_CURVE('',#174,#175,#116,.T.);
#214=EDGE_CURVE('',#175,#175,#38,.T.);
#215=EDGE_CURVE('',#176,#176,#39,.T.);
#216=EDGE_CURVE('',#176,#177,#117,.T.);
#217=EDGE_CURVE('',#177,#177,#40,.T.);
#218=EDGE_CURVE('',#178,#178,#41,.T.);
#219=EDGE_CURVE('',#178,#179,#118,.T.);
#220=EDGE_CURVE('',#179,#179,#42,.T.);
#221=EDGE_CURVE('',#180,#180,#43,.T.);
#222=EDGE_CURVE('',#180,#181,#119,.T.);
#223=EDGE_CURVE('',#181,#181,#44,.T.);
#224=EDGE_CURVE('',#165,#182,#120,.T.);
#225=EDGE_CURVE('',#182,#183,#121,.T.);
#226=EDGE_CURVE('',#166,#183,#122,.T.);
#227=EDGE_CURVE('',#169,#182,#123,.T.);
#228=EDGE_CURVE('',#183,#168,#124,.T.);
#229=ORIENTED_EDGE('',*,*,#184,.F.);
#230=ORIENTED_EDGE('',*,*,#185,.F.);
#231=ORIENTED_EDGE('',*,*,#186,.T.);
#232=ORIENTED_EDGE('',*,*,#187,.F.);
#233=ORIENTED_EDGE('',*,*,#188,.F.);
#234=ORIENTED_EDGE('',*,*,#189,.F.);
#235=ORIENTED_EDGE('',*,*,#190,.T.);
#236=ORIENTED_EDGE('',*,*,#191,.F.);
#237=ORIENTED_EDGE('',*,*,#192,.F.);
#238=ORIENTED_EDGE('',*,*,#186,.F.);
#239=ORIENTED_EDGE('',*,*,#193,.F.);
#240=ORIENTED_EDGE('',*,*,#190,.F.);
#241=ORIENTED_EDGE('',*,*,#194,.F.);
#242=ORIENTED_EDGE('',*,*,#195,.T.);
#243=ORIENTED_EDGE('',*,*,#196,.T.);
#244=ORIENTED_EDGE('',*,*,#187,.T.);
#245=ORIENTED_EDGE('',*,*,#192,.T.);
#246=ORIENTED_EDGE('',*,*,#189,.T.);
#247=ORIENTED_EDGE('',*,*,#197,.T.);
#248=ORIENTED_EDGE('',*,*,#195,.F.);
#249=ORIENTED_EDGE('',*,*,#188,.T.);
#250=ORIENTED_EDGE('',*,*,#198,.T.);
#251=ORIENTED_EDGE('',*,*,#199,.T.);
#252=ORIENTED_EDGE('',*,*,#200,.T.);
#253=ORIENTED_EDGE('',*,*,#201,.T.);
#254=ORIENTED_EDGE('',*,*,#202,.T.);
#255=ORIENTED_EDGE('',*,*,#184,.T.);
#256=ORIENTED_EDGE('',*,*,#196,.F.);
#257=ORIENTED_EDGE('',*,*,#197,.F.);
#258=ORIENTED_EDGE('',*,*,#191,.T.);
#259=ORIENTED_EDGE('',*,*,#193,.T.);
#260=ORIENTED_EDGE('',*,*,#185,.T.);
#261=ORIENTED_EDGE('',*,*,#202,.F.);
#262=ORIENTED_EDGE('',*,*,#203,.T.);
#263=ORIENTED_EDGE('',*,*,#204,.T.);
#264=ORIENTED_EDGE('',*,*,#205,.F.);
#265=ORIENTED_EDGE('',*,*,#198,.F.);
#266=ORIENTED_EDGE('',*,*,#206,.F.);
#267=ORIENTED_EDGE('',*,*,#207,.T.);
#268=ORIENTED_EDGE('',*,*,#208,.T.);
#269=ORIENTED_EDGE('',*,*,#207,.F.);
#270=ORIENTED_EDGE('',*,*,#208,.F.);
#271=ORIENTED_EDGE('',*,*,#209,.F.);
#272=ORIENTED_EDGE('',*,*,#209,.T.);
#273=ORIENTED_EDGE('',*,*,#210,.T.);
#274=ORIENTED_EDGE('',*,*,#211,.F.);
#275=ORIENTED_EDGE('',*,*,#210,.F.);
#276=ORIENTED_EDGE('',*,*,#212,.F.);
#277=ORIENTED_EDGE('',*,*,#213,.T.);
#278=ORIENTED_EDGE('',*,*,#214,.T.);
#279=ORIENTED_EDGE('',*,*,#213,.F.);
#280=ORIENTED_EDGE('',*,*,#215,.F.);
#281=ORIENTED_EDGE('',*,*,#216,.T.);
#282=ORIENTED_EDGE('',*,*,#217,.T.);
#283=ORIENTED_EDGE('',*,*,#216,.F.);
#284=ORIENTED_EDGE('',*,*,#218,.F.);
#285=ORIENTED_EDGE('',*,*,#219,.T.);
#286=ORIENTED_EDGE('',*,*,#220,.T.);
#287=ORIENTED_EDGE('',*,*,#219,.F.);
#288=ORIENTED_EDGE('',*,*,#221,.F.);
#289=ORIENTED_EDGE('',*,*,#222,.T.);
#290=ORIENTED_EDGE('',*,*,#223,.T.);
#291=ORIENTED_EDGE('',*,*,#222,.F.);
#292=ORIENTED_EDGE('',*,*,#200,.F.);
#293=ORIENTED_EDGE('',*,*,#224,.T.);
#294=ORIENTED_EDGE('',*,*,#225,.T.);
#295=ORIENTED_EDGE('',*,*,#226,.F.);
#296=ORIENTED_EDGE('',*,*,#199,.F.);
#297=ORIENTED_EDGE('',*,*,#205,.T.);
#298=ORIENTED_EDGE('',*,*,#227,.T.);
#299=ORIENTED_EDGE('',*,*,#224,.F.);
#300=ORIENTED_EDGE('',*,*,#201,.F.);
#301=ORIENTED_EDGE('',*,*,#226,.T.);
#302=ORIENTED_EDGE('',*,*,#228,.T.);
#303=ORIENTED_EDGE('',*,*,#203,.F.);
#304=ORIENTED_EDGE('',*,*,#228,.F.);
#305=ORIENTED_EDGE('',*,*,#225,.F.);
#306=ORIENTED_EDGE('',*,*,#227,.F.);
#307=ORIENTED_EDGE('',*,*,#204,.F.);
#308=ORIENTED_EDGE('',*,*,#206,.T.);
#309=ORIENTED_EDGE('',*,*,#223,.F.);
#310=ORIENTED_EDGE('',*,*,#220,.F.);
#311=ORIENTED_EDGE('',*,*,#217,.F.);
#312=ORIENTED_EDGE('',*,*,#214,.F.);
#313=ORIENTED_EDGE('',*,*,#221,.T.);
#314=ORIENTED_EDGE('',*,*,#218,.T.);
#315=ORIENTED_EDGE('',*,*,#215,.T.);
#316=ORIENTED_EDGE('',*,*,#194,.T.);
#317=ORIENTED_EDGE('',*,*,#211,.T.);
#318=ORIENTED_EDGE('',*,*,#212,.T.);
#319=PLANE('',#379);
#320=PLANE('',#380);
#321=PLANE('',#381);
#322=PLANE('',#387);
#323=PLANE('',#388);
#324=PLANE('',#392);
#325=PLANE('',#408);
#326=PLANE('',#409);
#327=PLANE('',#410);
#328=PLANE('',#411);
#329=PLANE('',#412);
#330=PLANE('',#413);
#331=PLANE('',#414);
#332=PLANE('',#415);
#333=PLANE('',#416);
#334=ADVANCED_FACE('',(#45),#319,.F.);
#335=ADVANCED_FACE('',(#46),#320,.F.);
#336=ADVANCED_FACE('',(#47),#321,.T.);
#337=ADVANCED_FACE('',(#48),#22,.T.);
#338=ADVANCED_FACE('',(#49),#322,.F.);
#339=ADVANCED_FACE('',(#50),#323,.F.);
#340=ADVANCED_FACE('',(#51),#23,.F.);
#341=ADVANCED_FACE('',(#52,#15),#324,.T.);
#342=ADVANCED_FACE('',(#53),#24,.F.);
#343=ADVANCED_FACE('',(#54),#25,.T.);
#344=ADVANCED_FACE('',(#55),#26,.T.);
#345=ADVANCED_FACE('',(#56),#27,.T.);
#346=ADVANCED_FACE('',(#57),#28,.T.);
#347=ADVANCED_FACE('',(#58),#325,.F.);
#348=ADVANCED_FACE('',(#59),#326,.F.);
#349=ADVANCED_FACE('',(#60),#327,.F.);
#350=ADVANCED_FACE('',(#61,#16,#17,#18,#19,#20),#328,.T.);
#351=ADVANCED_FACE('',(#62),#329,.F.);
#352=ADVANCED_FACE('',(#63),#330,.F.);
#353=ADVANCED_FACE('',(#64),#331,.F.);
#354=ADVANCED_FACE('',(#65,#21),#332,.T.);
#355=ADVANCED_FACE('',(#66),#333,.F.);
#356=CLOSED_SHELL('',(#334,#335,#336,#337,#338,#339,#340,#341,#342,#343,
#344,#345,#346,#347,#348,#349,#350,#351,#352,#353,#354,#355));
#357=DERIVED_UNIT_ELEMENT(#360,1.);
#358=DERIVED_UNIT_ELEMENT(#627,-3.);
#359=DIMENSIONAL_EXPONENTS(0.,1.,0.,0.,0.,0.,0.);
#360=(
CONVERSION_BASED_UNIT('gram',#362)
MASS_UNIT()
NAMED_UNIT(#359)
);
#361=(
MASS_UNIT()
NAMED_UNIT(*)
SI_UNIT(.KILO.,.GRAM.)
);
#362=MASS_MEASURE_WITH_UNIT(MASS_MEASURE(0.001),#361);
#363=DERIVED_UNIT((#357,#358));
#364=MEASURE_REPRESENTATION_ITEM('density measure',
POSITIVE_RATIO_MEASURE(1.),#363);
#365=PROPERTY_DEFINITION_REPRESENTATION(#370,#367);
#366=PROPERTY_DEFINITION_REPRESENTATION(#371,#368);
#367=REPRESENTATION('material name',(#369),#624);
#368=REPRESENTATION('density',(#364),#624);
#369=DESCRIPTIVE_REPRESENTATION_ITEM('Generic','Generic');
#370=PROPERTY_DEFINITION('material property','material name',#634);
#371=PROPERTY_DEFINITION('material property','density of part',#634);
#372=DATE_TIME_ROLE('creation_date');
#373=APPLIED_DATE_AND_TIME_ASSIGNMENT(#374,#372,(#634));
#374=DATE_AND_TIME(#375,#376);
#375=CALENDAR_DATE(2026,1,10);
#376=LOCAL_TIME(0,0,0.,#377);
#377=COORDINATED_UNIVERSAL_TIME_OFFSET(0,0,.BEHIND.);
#378=AXIS2_PLACEMENT_3D('',#524,#417,#418);
#379=AXIS2_PLACEMENT_3D('',#525,#419,#420);
#380=AXIS2_PLACEMENT_3D('',#534,#425,#426);
#381=AXIS2_PLACEMENT_3D('',#543,#431,#432);
#382=AXIS2_PLACEMENT_3D('',#544,#433,#434);
#383=AXIS2_PLACEMENT_3D('',#546,#436,#437);
#384=AXIS2_PLACEMENT_3D('',#548,#438,#439);
#385=AXIS2_PLACEMENT_3D('',#551,#441,#442);
#386=AXIS2_PLACEMENT_3D('',#552,#443,#444);
#387=AXIS2_PLACEMENT_3D('',#553,#445,#446);
#388=AXIS2_PLACEMENT_3D('',#563,#452,#453);
#389=AXIS2_PLACEMENT_3D('',#569,#457,#458);
#390=AXIS2_PLACEMENT_3D('',#571,#459,#460);
#391=AXIS2_PLACEMENT_3D('',#574,#462,#463);
#392=AXIS2_PLACEMENT_3D('',#575,#464,#465);
#393=AXIS2_PLACEMENT_3D('',#577,#466,#467);
#394=AXIS2_PLACEMENT_3D('',#578,#468,#469);
#395=AXIS2_PLACEMENT_3D('',#581,#471,#472);
#396=AXIS2_PLACEMENT_3D('',#582,#473,#474);
#397=AXIS2_PLACEMENT_3D('',#584,#475,#476);
#398=AXIS2_PLACEMENT_3D('',#587,#478,#479);
#399=AXIS2_PLACEMENT_3D('',#588,#480,#481);
#400=AXIS2_PLACEMENT_3D('',#590,#482,#483);
#401=AXIS2_PLACEMENT_3D('',#593,#485,#486);
#402=AXIS2_PLACEMENT_3D('',#594,#487,#488);
#403=AXIS2_PLACEMENT_3D('',#596,#489,#490);
#404=AXIS2_PLACEMENT_3D('',#599,#492,#493);
#405=AXIS2_PLACEMENT_3D('',#600,#494,#495);
#406=AXIS2_PLACEMENT_3D('',#602,#496,#497);
#407=AXIS2_PLACEMENT_3D('',#605,#499,#500);
#408=AXIS2_PLACEMENT_3D('',#606,#501,#502);
#409=AXIS2_PLACEMENT_3D('',#612,#506,#507);
#410=AXIS2_PLACEMENT_3D('',#614,#509,#510);
#411=AXIS2_PLACEMENT_3D('',#616,#512,#513);
#412=AXIS2_PLACEMENT_3D('',#617,#514,#515);
#413=AXIS2_PLACEMENT_3D('',#618,#516,#517);
#414=AXIS2_PLACEMENT_3D('',#619,#518,#519);
#415=AXIS2_PLACEMENT_3D('',#620,#520,#521);
#416=AXIS2_PLACEMENT_3D('',#621,#522,#523);
#417=DIRECTION('axis',(0.,0.,1.));
#418=DIRECTION('refdir',(1.,0.,0.));
#419=DIRECTION('center_axis',(-1.,0.,0.));
#420=DIRECTION('ref_axis',(0.,0.,1.));
#421=DIRECTION('',(0.,0.,1.));
#422=DIRECTION('',(0.,-1.,0.));
#423=DIRECTION('',(0.,0.,1.));
#424=DIRECTION('',(0.,1.,0.));
#425=DIRECTION('center_axis',(1.,0.,0.));
#426=DIRECTION('ref_axis',(0.,0.,-1.));
#427=DIRECTION('',(0.,0.,-1.));
#428=DIRECTION('',(0.,-1.,0.));
#429=DIRECTION('',(0.,0.,-1.));
#430=DIRECTION('',(0.,1.,0.));
#431=DIRECTION('center_axis',(0.,-1.,0.));
#432=DIRECTION('ref_axis',(0.,0.,-1.));
#433=DIRECTION('center_axis',(0.,1.,0.));
#434=DIRECTION('ref_axis',(-1.,0.,0.));
#435=DIRECTION('',(-1.,0.,0.));
#436=DIRECTION('center_axis',(0.,1.,0.));
#437=DIRECTION('ref_axis',(-1.,0.,0.));
#438=DIRECTION('center_axis',(0.,1.,0.));
#439=DIRECTION('ref_axis',(-1.,0.,0.));
#440=DIRECTION('',(0.,-1.,0.));
#441=DIRECTION('center_axis',(0.,1.,0.));
#442=DIRECTION('ref_axis',(-1.,0.,0.));
#443=DIRECTION('center_axis',(0.,1.,0.));
#444=DIRECTION('ref_axis',(-1.,0.,0.));
#445=DIRECTION('center_axis',(0.,1.,0.));
#446=DIRECTION('ref_axis',(0.,0.,1.));
#447=DIRECTION('',(1.,0.,0.));
#448=DIRECTION('',(0.,0.,-1.));
#449=DIRECTION('',(-1.,0.,0.));
#450=DIRECTION('',(0.,0.,1.));
#451=DIRECTION('',(1.,0.,0.));
#452=DIRECTION('center_axis',(0.,0.,1.));
#453=DIRECTION('ref_axis',(1.,0.,0.));
#454=DIRECTION('',(0.,1.,0.));
#455=DIRECTION('',(1.,0.,0.));
#456=DIRECTION('',(0.,1.,0.));
#457=DIRECTION('center_axis',(0.,1.,0.));
#458=DIRECTION('ref_axis',(1.,0.,0.));
#459=DIRECTION('center_axis',(0.,1.,0.));
#460=DIRECTION('ref_axis',(1.,0.,0.));
#461=DIRECTION('',(0.,1.,0.));
#462=DIRECTION('center_axis',(0.,1.,0.));
#463=DIRECTION('ref_axis',(1.,0.,0.));
#464=DIRECTION('center_axis',(0.,-1.,0.));
#465=DIRECTION('ref_axis',(0.,0.,-1.));
#466=DIRECTION('center_axis',(0.,-1.,0.));
#467=DIRECTION('ref_axis',(1.,0.,0.));
#468=DIRECTION('center_axis',(0.,1.,0.));
#469=DIRECTION('ref_axis',(1.,0.,0.));
#470=DIRECTION('',(0.,1.,0.));
#471=DIRECTION('center_axis',(0.,-1.,0.));
#472=DIRECTION('ref_axis',(1.,0.,0.));
#473=DIRECTION('center_axis',(0.,1.,0.));
#474=DIRECTION('ref_axis',(-1.,0.,0.));
#475=DIRECTION('center_axis',(0.,-1.,0.));
#476=DIRECTION('ref_axis',(-1.,0.,0.));
#477=DIRECTION('',(0.,1.,0.));
#478=DIRECTION('center_axis',(0.,-1.,0.));
#479=DIRECTION('ref_axis',(-1.,0.,0.));
#480=DIRECTION('center_axis',(0.,1.,0.));
#481=DIRECTION('ref_axis',(-1.,0.,0.));
#482=DIRECTION('center_axis',(0.,-1.,0.));
#483=DIRECTION('ref_axis',(-1.,0.,0.));
#484=DIRECTION('',(0.,1.,0.));
#485=DIRECTION('center_axis',(0.,-1.,0.));
#486=DIRECTION('ref_axis',(-1.,0.,0.));
#487=DIRECTION('center_axis',(0.,1.,0.));
#488=DIRECTION('ref_axis',(-1.,0.,0.));
#489=DIRECTION('center_axis',(0.,-1.,0.));
#490=DIRECTION('ref_axis',(-1.,0.,0.));
#491=DIRECTION('',(0.,1.,0.));
#492=DIRECTION('center_axis',(0.,-1.,0.));
#493=DIRECTION('ref_axis',(-1.,0.,0.));
#494=DIRECTION('center_axis',(0.,1.,0.));
#495=DIRECTION('ref_axis',(-1.,0.,0.));
#496=DIRECTION('center_axis',(0.,-1.,0.));
#497=DIRECTION('ref_axis',(-1.,0.,0.));
#498=DIRECTION('',(0.,1.,0.));
#499=DIRECTION('center_axis',(0.,-1.,0.));
#500=DIRECTION('ref_axis',(-1.,0.,0.));
#501=DIRECTION('center_axis',(0.,0.,-1.));
#502=DIRECTION('ref_axis',(-1.,0.,0.));
#503=DIRECTION('',(0.,1.,0.));
#504=DIRECTION('',(-1.,0.,0.));
#505=DIRECTION('',(0.,1.,0.));
#506=DIRECTION('center_axis',(1.,0.,0.));
#507=DIRECTION('ref_axis',(0.,0.,-1.));
#508=DIRECTION('',(0.,0.,-1.));
#509=DIRECTION('center_axis',(-1.,0.,0.));
#510=DIRECTION('ref_axis',(0.,0.,1.));
#511=DIRECTION('',(0.,0.,1.));
#512=DIRECTION('center_axis',(0.,-1.,0.));
#513=DIRECTION('ref_axis',(0.,0.,-1.));
#514=DIRECTION('center_axis',(0.,1.,0.));
#515=DIRECTION('ref_axis',(0.,0.,1.));
#516=DIRECTION('center_axis',(0.,1.,0.));
#517=DIRECTION('ref_axis',(0.,0.,1.));
#518=DIRECTION('center_axis',(0.,1.,0.));
#519=DIRECTION('ref_axis',(0.,0.,1.));
#520=DIRECTION('center_axis',(0.,1.,0.));
#521=DIRECTION('ref_axis',(0.,0.,1.));
#522=DIRECTION('center_axis',(0.,1.,0.));
#523=DIRECTION('ref_axis',(0.,0.,1.));
#524=CARTESIAN_POINT('',(0.,0.,0.));
#525=CARTESIAN_POINT('Origin',(-5.02097608655381,0.,21.15));
#526=CARTESIAN_POINT('',(-5.02097608655379,0.,21.15));
#527=CARTESIAN_POINT('',(-5.02097608655381,0.,99.8738694511144));
#528=CARTESIAN_POINT('',(-5.02097608655381,0.,10.575));
#529=CARTESIAN_POINT('',(-5.02097608655379,6.,21.15));
#530=CARTESIAN_POINT('',(-5.02097608655381,0.,21.15));
#531=CARTESIAN_POINT('',(-5.02097608655381,6.,99.8738694511144));
#532=CARTESIAN_POINT('',(-5.02097608655381,6.,99.8738694511144));
#533=CARTESIAN_POINT('',(-5.02097608655354,0.,99.8738694511145));
#534=CARTESIAN_POINT('Origin',(5.31232261074317,0.,99.8587964501845));
#535=CARTESIAN_POINT('',(5.31232261074317,0.,99.8587964501845));
#536=CARTESIAN_POINT('',(5.31232261074317,0.,21.15));
#537=CARTESIAN_POINT('',(5.31232261074317,0.,49.9293982250923));
#538=CARTESIAN_POINT('',(5.31232261074317,6.,99.8587964501845));
#539=CARTESIAN_POINT('',(5.31232261074317,0.,99.8587964501845));
#540=CARTESIAN_POINT('',(5.31232261074317,6.,21.15));
#541=CARTESIAN_POINT('',(5.31232261074317,6.,21.15));
#542=CARTESIAN_POINT('',(5.31232261074317,0.,21.15));
#543=CARTESIAN_POINT('Origin',(0.145673262094679,6.,60.6926376703825));
#544=CARTESIAN_POINT('Origin',(0.,6.,0.));
#545=CARTESIAN_POINT('',(-10.5021633689527,6.,21.15));
#546=CARTESIAN_POINT('Origin',(0.,0.,0.));
#547=CARTESIAN_POINT('',(100.,100.,-1.22464679914735E-14));
#548=CARTESIAN_POINT('Origin',(0.,100.,0.));
#549=CARTESIAN_POINT('',(100.,0.,-1.22464679914735E-14));
#550=CARTESIAN_POINT('',(100.,0.,-1.22464679914735E-14));
#551=CARTESIAN_POINT('Origin',(0.,0.,0.));
#552=CARTESIAN_POINT('Origin',(0.,0.,0.));
#553=CARTESIAN_POINT('Origin',(0.,0.,0.));
#554=CARTESIAN_POINT('',(21.15,0.,21.15));
#555=CARTESIAN_POINT('',(-10.575,0.,21.15));
#556=CARTESIAN_POINT('',(21.15,0.,-21.15));
#557=CARTESIAN_POINT('',(21.15,0.,10.575));
#558=CARTESIAN_POINT('',(-21.15,0.,-21.15));
#559=CARTESIAN_POINT('',(10.575,0.,-21.15));
#560=CARTESIAN_POINT('',(-21.15,0.,21.15));
#561=CARTESIAN_POINT('',(-21.15,0.,-10.575));
#562=CARTESIAN_POINT('',(-10.575,0.,21.15));
#563=CARTESIAN_POINT('Origin',(-21.15,0.,21.15));
#564=CARTESIAN_POINT('',(-21.15,22.,21.15));
#565=CARTESIAN_POINT('',(-21.15,0.,21.15));
#566=CARTESIAN_POINT('',(21.15,22.,21.15));
#567=CARTESIAN_POINT('',(21.15,22.,21.15));
#568=CARTESIAN_POINT('',(21.15,0.,21.15));
#569=CARTESIAN_POINT('Origin',(0.,22.,0.));
#570=CARTESIAN_POINT('',(-11.,22.,1.34711147906209E-15));
#571=CARTESIAN_POINT('Origin',(0.,22.,0.));
#572=CARTESIAN_POINT('',(-11.,24.,1.34711147906209E-15));
#573=CARTESIAN_POINT('',(-11.,22.,1.34711147906209E-15));
#574=CARTESIAN_POINT('Origin',(0.,24.,0.));
#575=CARTESIAN_POINT('Origin',(0.,24.,0.));
#576=CARTESIAN_POINT('',(-2.5,24.,-3.06161699786838E-16));
#577=CARTESIAN_POINT('Origin',(0.,24.,0.));
#578=CARTESIAN_POINT('Origin',(0.,22.,0.));
#579=CARTESIAN_POINT('',(-2.5,100.,-3.06161699786838E-16));
#580=CARTESIAN_POINT('',(-2.5,22.,3.06161699786838E-16));
#581=CARTESIAN_POINT('Origin',(0.,100.,0.));
#582=CARTESIAN_POINT('Origin',(15.5,0.,-15.5));
#583=CARTESIAN_POINT('',(16.9,0.,-15.5));
#584=CARTESIAN_POINT('Origin',(15.5,0.,-15.5));
#585=CARTESIAN_POINT('',(16.9,22.,-15.5));
#586=CARTESIAN_POINT('',(16.9,0.,-15.5));
#587=CARTESIAN_POINT('Origin',(15.5,22.,-15.5));
#588=CARTESIAN_POINT('Origin',(-15.5,0.,-15.5));
#589=CARTESIAN_POINT('',(-14.1,0.,-15.5));
#590=CARTESIAN_POINT('Origin',(-15.5,0.,-15.5));
#591=CARTESIAN_POINT('',(-14.1,22.,-15.5));
#592=CARTESIAN_POINT('',(-14.1,0.,-15.5));
#593=CARTESIAN_POINT('Origin',(-15.5,22.,-15.5));
#594=CARTESIAN_POINT('Origin',(-15.5,0.,15.5));
#595=CARTESIAN_POINT('',(-14.1,0.,15.5));
#596=CARTESIAN_POINT('Origin',(-15.5,0.,15.5));
#597=CARTESIAN_POINT('',(-14.1,22.,15.5));
#598=CARTESIAN_POINT('',(-14.1,0.,15.5));
#599=CARTESIAN_POINT('Origin',(-15.5,22.,15.5));
#600=CARTESIAN_POINT('Origin',(15.5,0.,15.5));
#601=CARTESIAN_POINT('',(16.9,0.,15.5));
#602=CARTESIAN_POINT('Origin',(15.5,0.,15.5));
#603=CARTESIAN_POINT('',(16.9,22.,15.5));
#604=CARTESIAN_POINT('',(16.9,0.,15.5));
#605=CARTESIAN_POINT('Origin',(15.5,22.,15.5));
#606=CARTESIAN_POINT('Origin',(21.15,0.,-21.15));
#607=CARTESIAN_POINT('',(21.15,22.,-21.15));
#608=CARTESIAN_POINT('',(21.15,0.,-21.15));
#609=CARTESIAN_POINT('',(-21.15,22.,-21.15));
#610=CARTESIAN_POINT('',(-21.15,22.,-21.15));
#611=CARTESIAN_POINT('',(-21.15,0.,-21.15));
#612=CARTESIAN_POINT('Origin',(21.15,0.,21.15));
#613=CARTESIAN_POINT('',(21.15,22.,-21.15));
#614=CARTESIAN_POINT('Origin',(-21.15,0.,-21.15));
#615=CARTESIAN_POINT('',(-21.15,22.,21.15));
#616=CARTESIAN_POINT('Origin',(0.,22.,0.));
#617=CARTESIAN_POINT('Origin',(0.,0.,0.));
#618=CARTESIAN_POINT('Origin',(0.,0.,0.));
#619=CARTESIAN_POINT('Origin',(0.,0.,0.));
#620=CARTESIAN_POINT('Origin',(0.,100.,0.));
#621=CARTESIAN_POINT('Origin',(0.,0.,0.));
#622=UNCERTAINTY_MEASURE_WITH_UNIT(LENGTH_MEASURE(0.01),#626,
'DISTANCE_ACCURACY_VALUE',
'Maximum model space distance between geometric entities at asserted c
onnectivities');
#623=UNCERTAINTY_MEASURE_WITH_UNIT(LENGTH_MEASURE(0.01),#626,
'DISTANCE_ACCURACY_VALUE',
'Maximum model space distance between geometric entities at asserted c
onnectivities');
#624=(
GEOMETRIC_REPRESENTATION_CONTEXT(3)
GLOBAL_UNCERTAINTY_ASSIGNED_CONTEXT((#622))
GLOBAL_UNIT_ASSIGNED_CONTEXT((#626,#628,#629))
REPRESENTATION_CONTEXT('','3D')
);
#625=(
GEOMETRIC_REPRESENTATION_CONTEXT(3)
GLOBAL_UNCERTAINTY_ASSIGNED_CONTEXT((#623))
GLOBAL_UNIT_ASSIGNED_CONTEXT((#626,#628,#629))
REPRESENTATION_CONTEXT('','3D')
);
#626=(
LENGTH_UNIT()
NAMED_UNIT(*)
SI_UNIT(.MILLI.,.METRE.)
);
#627=(
LENGTH_UNIT()
NAMED_UNIT(*)
SI_UNIT(.CENTI.,.METRE.)
);
#628=(
NAMED_UNIT(*)
PLANE_ANGLE_UNIT()
SI_UNIT($,.RADIAN.)
);
#629=(
NAMED_UNIT(*)
SI_UNIT($,.STERADIAN.)
SOLID_ANGLE_UNIT()
);
#630=SHAPE_DEFINITION_REPRESENTATION(#631,#632);
#631=PRODUCT_DEFINITION_SHAPE('',$,#634);
#632=SHAPE_REPRESENTATION('',(#378),#624);
#633=PRODUCT_DEFINITION_CONTEXT('part definition',#638,'design');
#634=PRODUCT_DEFINITION('Base','Base',#635,#633);
#635=PRODUCT_DEFINITION_FORMATION('',$,#640);
#636=PRODUCT_RELATED_PRODUCT_CATEGORY('Base','Base',(#640));
#637=APPLICATION_PROTOCOL_DEFINITION('international standard',
'automotive_design',2009,#638);
#638=APPLICATION_CONTEXT(
'Core Data for Automotive Mechanical Design Process');
#639=PRODUCT_CONTEXT('part definition',#638,'mechanical');
#640=PRODUCT('Base','Base',$,(#639));
#641=PRESENTATION_STYLE_ASSIGNMENT((#642));
#642=SURFACE_STYLE_USAGE(.BOTH.,#645);
#643=SURFACE_STYLE_RENDERING_WITH_PROPERTIES($,#649,(#644));
#644=SURFACE_STYLE_TRANSPARENT(0.);
#645=SURFACE_SIDE_STYLE('',(#646,#643));
#646=SURFACE_STYLE_FILL_AREA(#647);
#647=FILL_AREA_STYLE('',(#648));
#648=FILL_AREA_STYLE_COLOUR('',#649);
#649=COLOUR_RGB('',0.749019607843137,0.749019607843137,0.749019607843137);
ENDSEC;
END-ISO-10303-21;
